<svg width="200" height="200" viewBox="0 0 200 200" fill="none" xmlns="http://www.w3.org/2000/svg">
<path fill-rule="evenodd" clip-rule="evenodd" d="M92.4706 24.3576C89.5299 24.6398 87.1136 24.0636 85.2217 22.6289C83.3277 21.172 82.2361 18.9421 81.947 15.9394L81.4073 10.3342C81.1182 7.3315 81.7654 4.946 83.3489 3.17777C84.9303 1.38728 87.1913 0.35093 90.1321 0.0686998C93.0728 -0.21353 95.4902 0.373824 97.3842 1.83076C99.2761 3.26545 100.367 5.48418 100.656 8.48692L101.195 14.0921C101.484 17.0948 100.838 19.4914 99.257 21.2819C97.6735 23.0501 95.4113 24.0754 92.4706 24.3576ZM92.0916 20.4207C93.7402 20.2624 94.9751 19.6613 95.7964 18.6172C96.6177 17.5731 96.9513 16.2503 96.7971 14.6489L96.2318 8.77681C96.0776 7.17535 95.4977 5.94023 94.4922 5.07146C93.4867 4.20269 92.1597 3.84742 90.5111 4.00564C88.8848 4.16172 87.6499 4.76288 86.8063 5.80911C85.9849 6.8532 85.6514 8.17598 85.8056 9.77745L86.3709 15.6495C86.5251 17.251 87.105 18.4861 88.1105 19.3548C89.1382 20.2215 90.4653 20.5767 92.0916 20.4207Z" fill="#ECEDF3"/>
<path d="M52.7849 11.6229L62.3699 33.045L76.3472 26.811L74.704 23.1387L64.7728 27.5681L62.4039 22.2737L71.293 18.3092L69.6499 14.6368L60.7608 18.6014L58.4741 13.4907L68.2214 9.14334L66.5782 5.47099L52.7849 11.6229Z" fill="#ECEDF3"/>
<path d="M41.9363 49.4334L26.1163 32.0838L29.3931 29.1054L35.9245 36.2683L42.379 30.4017L35.8476 23.2388L39.1245 20.2603L54.9445 37.6099L51.6676 40.5884L45.091 33.3759L38.6365 39.2425L45.2132 46.455L41.9363 49.4334Z" fill="#ECEDF3"/>
<path d="M31.7673 65.3932L14.6991 56.0375L11.4032 62.0312L7.87183 60.0955L16.5963 44.2298L20.1276 46.1655L16.8317 52.1592L33.8999 61.5149L31.7673 65.3932Z" fill="#ECEDF3"/>
<path fill-rule="evenodd" clip-rule="evenodd" d="M116.158 0.986714L110.432 23.7419L114.73 24.82L116.889 16.238L122.88 17.7408C123.51 17.8987 123.914 18.1728 124.092 18.5633C124.293 18.9591 124.327 19.4171 124.197 19.9372L122.479 26.7638L126.777 27.8419L128.65 20.3977C128.879 19.4875 128.823 18.7016 128.482 18.04C128.146 17.3567 127.549 16.8845 126.692 16.6234L126.839 16.0383C127.892 15.8878 128.851 15.4716 129.715 14.7897C130.579 14.1079 131.182 13.0843 131.526 11.719L131.624 11.3289C131.935 10.0936 131.912 8.94738 131.555 7.89017C131.198 6.83295 130.55 5.92172 129.612 5.15647C128.674 4.39123 127.489 3.82893 126.056 3.46957L116.158 0.986714ZM123.015 13.6276L117.871 12.3371L119.474 5.96568L124.619 7.25611C125.66 7.51746 126.393 8.00065 126.815 8.70568C127.243 9.38904 127.343 10.1858 127.114 11.096L127.032 11.4211C126.803 12.3313 126.324 12.9946 125.597 13.4111C124.896 13.8113 124.035 13.8835 123.015 13.6276Z" fill="#ECEDF3"/>
<path d="M134.543 31.6746L145.803 11.0809L149.692 13.2008L138.432 33.7945L134.543 31.6746Z" fill="#ECEDF3"/>
<path d="M148.93 40.3082C149.507 41.7251 150.46 43.0487 151.79 44.2789C153.12 45.5091 154.474 46.3509 155.854 46.8045C157.264 47.2568 158.598 47.3326 159.853 47.0319C161.14 46.7299 162.271 46.0545 163.244 45.0055C164.218 43.9565 164.762 42.8606 164.877 41.7178C164.991 40.575 164.779 39.3734 164.24 38.1132C163.718 36.8681 162.962 35.5449 161.975 34.1436L161.522 33.4967C160.97 32.7113 160.563 32.0152 160.302 31.4085C160.042 30.8017 159.933 30.2445 159.977 29.7369C160.038 29.2444 160.266 28.7851 160.661 28.359C161.254 27.7197 161.948 27.4325 162.743 27.4971C163.568 27.5606 164.474 28.048 165.459 28.9592C166.116 29.5667 166.591 30.189 166.884 30.8261C167.193 31.4469 167.28 32.076 167.146 32.7136C167.044 33.35 166.688 33.996 166.08 34.6516L165.395 35.3891L168.597 38.3507L169.281 37.6131C170.437 36.3675 171.117 35.0767 171.319 33.7408C171.553 32.4037 171.376 31.0823 170.788 29.7764C170.231 28.4694 169.337 27.2464 168.106 26.1073C166.875 24.9682 165.609 24.1783 164.31 23.7376C163.042 23.2956 161.803 23.2162 160.595 23.4994C159.418 23.7813 158.342 24.4468 157.369 25.4957C156.395 26.5447 155.826 27.602 155.66 28.6677C155.512 29.7486 155.666 30.8812 156.123 32.0655C156.611 33.2486 157.325 34.5181 158.263 35.8738L158.716 36.5207C159.302 37.368 159.759 38.1255 160.085 38.793C160.443 39.4593 160.617 40.0614 160.605 40.5994C160.611 41.1527 160.393 41.6669 159.952 42.1423C159.313 42.8306 158.509 43.1379 157.54 43.0641C156.588 43.0054 155.553 42.4597 154.437 41.427C153.337 40.4094 152.703 39.3504 152.534 38.25C152.38 37.1332 152.783 36.0585 153.741 35.0259L154.38 34.3375L151.179 31.3759L150.54 32.0643C149.384 33.31 148.682 34.6412 148.436 36.0578C148.189 37.4744 148.354 38.8912 148.93 40.3082Z" fill="#ECEDF3"/>
<path d="M163.017 55.9586L183.447 44.3645L190.912 57.4772L187.41 59.4648L182.134 50.1984L177.26 52.9645L182.071 61.4149L178.569 63.4024L173.758 54.952L168.709 57.8174L174.084 67.2586L170.581 69.2461L163.017 55.9586Z" fill="#ECEDF3"/>
<path fill-rule="evenodd" clip-rule="evenodd" d="M180.186 88.4965L176.293 88.5804L176.501 98.2312C176.569 101.381 177.415 103.754 179.039 105.351C180.686 106.969 183.087 107.745 186.242 107.677L190.672 107.581C193.827 107.513 196.181 106.635 197.734 104.948C199.31 103.283 200.064 100.875 199.996 97.7249L199.787 88.0741L195.894 88.158L195.96 91.2409L180.253 91.5794L180.186 88.4965ZM180.53 98.2114L180.483 95.9998L195.922 95.6671L195.97 97.8787C196.008 99.6659 195.567 100.983 194.645 101.83C193.745 102.676 192.434 103.118 190.711 103.155L186.012 103.256C184.312 103.293 182.982 102.908 182.025 102.102C181.067 101.295 180.569 99.9986 180.53 98.2114Z" fill="#ECEDF3"/>
<path d="M175.254 115.398L197.727 122.26L193.308 136.683L189.456 135.507L192.578 125.314L187.217 123.677L184.37 132.972L180.517 131.796L183.365 122.501L177.811 120.805L174.629 131.19L170.777 130.014L175.254 115.398Z" fill="#ECEDF3"/>
<path d="M166.088 139.613C164.766 140.386 163.591 141.518 162.562 143.008C161.533 144.499 160.893 145.958 160.641 147.386C160.395 148.845 160.511 150.173 160.989 151.37C161.473 152.599 162.305 153.619 163.484 154.43C164.664 155.242 165.828 155.622 166.977 155.572C168.127 155.521 169.287 155.139 170.459 154.426C171.618 153.731 172.822 152.795 174.069 151.618L174.645 151.078C175.345 150.42 175.976 149.918 176.54 149.574C177.104 149.229 177.641 149.042 178.151 149.013C178.648 149.002 179.135 149.161 179.615 149.491C180.333 149.985 180.718 150.63 180.767 151.424C180.823 152.249 180.47 153.214 179.708 154.317C179.2 155.053 178.651 155.612 178.062 155.993C177.491 156.388 176.879 156.564 176.228 156.523C175.583 156.513 174.891 156.255 174.154 155.747L173.325 155.177L170.848 158.765L171.678 159.335C173.078 160.299 174.455 160.785 175.808 160.793C177.167 160.833 178.452 160.468 179.662 159.7C180.878 158.962 181.962 157.904 182.914 156.524C183.867 155.144 184.468 153.78 184.719 152.433C184.975 151.117 184.876 149.882 184.422 148.728C183.974 147.605 183.16 146.638 181.981 145.827C180.801 145.015 179.671 144.604 178.591 144.594C177.499 144.602 176.398 144.917 175.29 145.538C174.187 146.19 173.031 147.077 171.822 148.199L171.245 148.739C170.49 149.44 169.804 150 169.189 150.418C168.58 150.867 168.008 151.125 167.473 151.191C166.926 151.276 166.385 151.134 165.85 150.766C165.076 150.234 164.656 149.484 164.591 148.516C164.512 147.566 164.905 146.466 165.768 145.215C166.619 143.982 167.578 143.203 168.645 142.879C169.73 142.567 170.853 142.811 172.014 143.609L172.788 144.142L175.264 140.554L174.49 140.022C173.09 139.058 171.67 138.556 170.23 138.515C168.79 138.474 167.41 138.84 166.088 139.613Z" fill="#ECEDF3"/>
<path d="M152.297 155.656L167.788 173.3L164.456 176.216L148.965 158.573L152.297 155.656Z" fill="#ECEDF3"/>
<path d="M138.99 166.469C137.489 166.414 136.016 166.744 134.572 167.458C133.49 167.994 132.702 168.546 132.21 169.114C131.717 169.682 131.415 170.231 131.303 170.76C131.171 171.299 131.12 171.774 131.148 172.184L130.607 172.452L129.608 170.44L125.939 172.256L131.277 183.007L140.18 178.599L138.51 175.236L133.517 177.708L133.368 177.408C132.791 176.246 132.645 175.122 132.929 174.033C133.213 172.945 134.077 172.044 135.52 171.329C136.964 170.614 138.306 170.499 139.545 170.983C140.795 171.486 141.782 172.469 142.508 173.93L145.073 179.095C145.809 180.577 145.989 181.947 145.615 183.204C145.24 184.462 144.351 185.439 142.948 186.133C142.005 186.6 141.134 186.807 140.333 186.754C139.542 186.722 138.848 186.48 138.249 186.028C137.63 185.586 137.136 184.995 136.768 184.254L136.649 184.014L132.739 185.95L132.799 186.07C133.962 188.412 135.593 189.911 137.693 190.568C139.782 191.254 142.121 190.957 144.707 189.677C147.314 188.387 149.016 186.633 149.814 184.418C150.623 182.222 150.356 179.773 149.013 177.07L146.508 172.025C145.613 170.223 144.512 168.861 143.204 167.937C141.885 167.043 140.481 166.554 138.99 166.469Z" fill="#ECEDF3"/>
<path d="M118.011 174.663L120.647 197.977L112.274 198.921L105.34 179.127L104.739 179.194L107.037 199.511L102.7 200L100.063 176.686L108.437 175.742L115.371 195.536L115.972 195.468L113.674 175.152L118.011 174.663Z" fill="#ECEDF3"/>
<path fill-rule="evenodd" clip-rule="evenodd" d="M76.6829 177.225L78.2435 173.663L67.0477 168.774C65.7559 168.209 64.5295 167.942 63.3684 167.972C62.1869 167.992 61.1354 168.301 60.214 168.899C59.2837 169.517 58.5584 170.42 58.0382 171.607L57.9036 171.914C57.4552 172.938 57.2867 173.852 57.3983 174.657C57.4893 175.452 57.7297 176.131 58.1193 176.691C58.4999 177.272 58.8889 177.722 59.2862 178.042L59.044 178.595C58.5301 178.541 57.9554 178.571 57.3198 178.683C56.6547 178.807 56.003 179.096 55.3648 179.549C54.7177 180.022 54.1789 180.75 53.7484 181.733L53.6138 182.04C53.1205 183.166 52.9758 184.249 53.1796 185.289C53.354 186.341 53.8391 187.297 54.635 188.157C55.4014 189.028 56.4408 189.75 57.7531 190.323L68.8258 195.159L70.3865 191.597L67.5568 190.361L73.8532 175.989L76.6829 177.225ZM65.9254 172.673L69.7393 174.339L67.4253 179.621L63.6114 177.955C62.7091 177.561 62.0856 177.033 61.7409 176.37C61.3961 175.707 61.3986 174.977 61.7484 174.178L61.8829 173.871C62.2327 173.073 62.7786 172.58 63.5206 172.392C64.2421 172.194 65.0437 172.288 65.9254 172.673ZM62.0584 181.667L65.8108 183.306L63.5506 188.465L59.7982 186.826C58.937 186.45 58.334 185.931 57.9892 185.268C57.6354 184.626 57.629 183.916 57.9698 183.138L58.1043 182.831C58.4362 182.073 58.9731 181.6 59.7151 181.412C60.4366 181.215 61.2177 181.3 62.0584 181.667Z" fill="#ECEDF3"/>
<path d="M47.955 155.102C49.3499 156.426 50.3111 157.817 50.8386 159.274C51.3344 160.731 51.4027 162.183 51.0435 163.631C50.6526 165.079 49.8402 166.451 48.6065 167.746L38.1039 178.774L34.8926 175.725L45.4876 164.6C46.4746 163.564 46.9615 162.469 46.9482 161.315C46.9187 160.147 46.3444 159.031 45.2253 157.968C44.1062 156.906 42.9694 156.397 41.8149 156.442C40.6441 156.472 39.5653 157.004 38.5783 158.041L27.9832 169.166L24.7718 166.117L35.2743 155.089C36.5081 153.794 37.8476 152.922 39.2927 152.475C40.7062 152.029 42.1625 152.024 43.6616 152.46C45.129 152.897 46.5602 153.778 47.955 155.102Z" fill="#ECEDF3"/>
<path d="M15.8473 153.709L35.9397 141.541L33.6414 137.758L13.549 149.926L15.8473 153.709Z" fill="#ECEDF3"/>
<path d="M29.3785 129.864L6.99443 137.008L5.64512 132.794L24.1919 126.874L20.9209 116.658L24.7581 115.433L29.3785 129.864Z" fill="#ECEDF3"/>
<path fill-rule="evenodd" clip-rule="evenodd" d="M19.6049 108.765L23.499 108.8L23.586 99.1473C23.6143 95.9967 22.8414 93.5988 21.2671 91.9534C19.6707 90.2854 17.2946 89.4373 14.1391 89.409L9.70782 89.3691C6.55224 89.3408 4.17252 90.1462 2.56864 91.7854C0.942585 93.4021 0.115363 95.7857 0.0869751 98.9362L0 108.589L3.89412 108.624L3.9219 105.54L19.6326 105.682L19.6049 108.765ZM19.5582 99.0441L19.5382 101.256L4.09604 101.117L4.11597 98.9054C4.13208 97.1178 4.61384 95.8149 5.56125 94.9966C6.48628 94.1781 7.81042 93.7766 9.53368 93.7921L14.2335 93.8343C15.9344 93.8496 17.251 94.2748 18.1836 95.11C19.1161 95.9452 19.5743 97.2565 19.5582 99.0441Z" fill="#ECEDF3"/>
<path d="M97.1016 63.139H102.996V126.361L129.218 100.181L133.386 104.342L100.051 137.623L66.7115 104.336L70.8797 100.175L97.1016 126.355V63.139Z" fill="#ECEDF3"/>
</svg>
