<svg width="400" height="400" viewBox="0 0 400 400" fill="none" xmlns="http://www.w3.org/2000/svg">
<rect width="400" height="400" fill="#0C0C0E"/>
<path d="M98.968 203.6C98.968 200.336 100.168 197.504 102.568 195.104C104.968 192.704 107.8 191.504 111.064 191.504C114.328 191.504 117.16 192.704 119.56 195.104C121.96 197.504 123.16 200.336 123.16 203.6C123.16 206.864 121.96 209.696 119.56 212.096C117.16 214.496 114.328 215.696 111.064 215.696C107.8 215.696 104.968 214.496 102.568 212.096C100.168 209.696 98.968 206.864 98.968 203.6ZM73.912 192.368C73.912 179.312 77.176 169.184 83.704 161.984C90.328 154.784 99.448 151.184 111.064 151.184C122.68 151.184 131.752 154.784 138.28 161.984C144.904 169.184 148.216 179.312 148.216 192.368V214.832C148.216 228.272 144.904 238.496 138.28 245.504C131.752 252.512 122.68 256.016 111.064 256.016C99.448 256.016 90.328 252.512 83.704 245.504C77.176 238.496 73.912 228.272 73.912 214.832V192.368ZM111.064 238.736C114.52 238.736 117.4 238.208 119.704 237.152C122.008 236 123.88 234.416 125.32 232.4C126.76 230.384 127.768 227.984 128.344 225.2C128.92 222.416 129.208 219.344 129.208 215.984V191.216C129.208 188.048 128.872 185.072 128.2 182.288C127.528 179.504 126.472 177.104 125.032 175.088C123.592 173.072 121.72 171.488 119.416 170.336C117.112 169.088 114.328 168.464 111.064 168.464C107.8 168.464 105.016 169.088 102.712 170.336C100.408 171.488 98.536 173.072 97.096 175.088C95.656 177.104 94.6 179.504 93.928 182.288C93.256 185.072 92.92 188.048 92.92 191.216V215.984C92.92 219.344 93.208 222.416 93.784 225.2C94.36 227.984 95.368 230.384 96.808 232.4C98.248 234.416 100.12 236 102.424 237.152C104.728 238.208 107.608 238.736 111.064 238.736Z" fill="#8785F1"/>
<path d="M203.124 256.016C191.124 256.016 181.572 252.56 174.468 245.648C167.364 238.64 163.812 228.464 163.812 215.12V192.08C163.812 178.736 167.364 168.608 174.468 161.696C181.572 154.688 191.124 151.184 203.124 151.184C215.028 151.184 224.148 154.496 230.484 161.12C236.916 167.744 240.132 176.816 240.132 188.336V189.056H228.18V187.904C228.18 180.32 226.116 174.128 221.988 169.328C217.956 164.432 211.668 161.984 203.124 161.984C194.58 161.984 187.908 164.624 183.108 169.904C178.308 175.088 175.908 182.384 175.908 191.792V215.408C175.908 224.816 178.308 232.16 183.108 237.44C187.908 242.624 194.58 245.216 203.124 245.216C211.668 245.216 217.956 242.816 221.988 238.016C226.116 233.12 228.18 226.88 228.18 219.296V216.992H240.132V218.864C240.132 230.384 236.916 239.456 230.484 246.08C224.148 252.704 215.028 256.016 203.124 256.016ZM253.755 254L281.979 218.288L254.619 183.584H268.299L289.323 210.8H291.339L312.219 183.584H326.043L298.539 218.288L326.763 254H312.939L291.339 225.92H289.323L267.723 254H253.755Z" fill="#ECEDF3"/>
</svg>
